<?xml version="1.0" encoding="UTF-8"?>
<!-- Generated by Pixelmator Pro 3.4.3 -->
<svg width="133" height="105" viewBox="0 0 133 105" xmlns="http://www.w3.org/2000/svg">
    <g id="-">
        <path id="--10" fill="#ffffff" stroke="none" d="M 63.826569 2 L 42.796978 2 L 0.737817 44.059181 L 0.737817 61.082428 L 42.796978 61.082428 L 42.796978 82.112823 L 63.826569 82.112823 L 63.826569 44.059181 L 21.768206 44.059181 L 63.826569 2 Z"/>
        <path id="--9" fill="#ffffff" stroke="none" d="M 72.838898 23.029259 L 93.866859 2.000481 L 72.838898 2.000481 L 72.838898 23.029259 Z"/>
        <path id="--8" fill="#ffffff" stroke="none" d="M 114.89724 23.029007 L 114.89724 2.000237 L 93.869278 2.000237 L 93.869278 23.029007 L 72.83889 44.056973 L 72.83889 65.087372 L 93.869278 65.087372 L 93.869278 44.056973 L 114.89724 23.029007 Z"/>
        <path id="--7" fill="#ffffff" stroke="none" d="M 114.89724 44.058598 L 93.869278 65.088989 L 114.89724 65.088989 L 114.89724 44.058598 Z"/>
        <path id="--6" fill="#ffffff" fill-rule="evenodd" stroke="none" d="M 72.838554 82.113617 L 74.499672 82.113617 L 74.499672 103.021393 L 72.838554 103.021393 Z"/>
        <path id="--5" fill="#ffffff" stroke="none" d="M 88.779449 88.930359 C 88.081612 88.299469 87.417656 88.133286 86.919083 88.133286 C 86.603645 88.133286 86.155891 88.183304 85.872726 88.415642 C 85.640381 88.597977 85.491127 88.913414 85.491127 89.212723 C 85.491127 89.545097 85.640381 89.777435 85.872726 89.95977 C 86.105873 90.159042 86.404373 90.292152 86.952164 90.541443 L 87.599983 90.839935 C 88.13163 91.089218 88.629395 91.371582 89.061813 91.903229 C 89.46035 92.400993 89.62574 92.915703 89.62574 93.629677 C 89.62574 94.792206 89.161041 95.821625 88.513222 96.469444 C 87.616928 97.349609 86.471336 97.548874 85.341881 97.548874 C 84.527878 97.548874 83.880051 97.449646 83.132996 97.051109 C 82.585213 96.751808 82.053566 96.304062 81.655029 95.871643 L 83.082977 94.045158 C 83.316132 94.360596 83.681587 94.709923 84.013161 94.925323 C 84.361679 95.141533 84.827171 95.290779 85.308807 95.290779 C 85.690399 95.290779 86.222046 95.174606 86.537483 94.942261 C 86.835983 94.709923 87.002182 94.327515 87.002182 93.912041 C 87.002182 93.513504 86.819847 93.281158 86.686737 93.148857 C 86.603645 93.064957 86.388237 92.882629 85.806572 92.650284 L 85.158745 92.384865 C 84.976425 92.317902 84.129333 91.953247 83.598495 91.404655 C 83.066841 90.85688 82.867577 90.225189 82.867577 89.52816 C 82.867577 88.382568 83.332268 87.552422 83.863922 87.020767 C 84.761017 86.14061 85.906616 85.974411 86.852928 85.974411 C 87.799248 85.974411 88.895622 86.156746 90.058151 87.070786 L 88.779449 88.930359 Z"/>
        <path id="--4" fill="#ffffff" stroke="none" d="M 98.359131 88.382553 L 94.739235 88.382553 L 94.473007 90.524483 L 97.960594 90.524483 L 97.695175 92.684158 L 94.207588 92.684158 L 93.908287 95.141518 L 97.595146 95.141518 L 97.329712 97.300385 L 91.151619 97.300385 L 92.51342 86.223686 L 98.62455 86.223686 L 98.359131 88.382553 Z"/>
        <path id="--3" fill="#ffffff" stroke="none" d="M 103.288979 89.395218 C 102.641151 90.076118 102.275703 91.006302 102.275703 91.935677 C 102.275703 92.948959 102.658096 93.746025 103.172798 94.260735 C 103.919861 95.024727 104.816963 95.190918 105.597099 95.190918 C 106.344139 95.190918 107.257385 95.074745 108.071404 94.24379 C 108.669205 93.62986 109.100807 92.666595 109.100807 91.521004 C 109.100807 90.80703 108.951553 89.90992 108.220634 89.195946 C 107.490532 88.481972 106.610374 88.332733 105.929466 88.332733 C 104.833084 88.332733 103.952934 88.69738 103.288979 89.395218 M 110.163307 87.418678 C 111.110435 88.332733 111.725174 89.7276 111.725174 91.35482 C 111.725174 92.932014 111.176582 94.642326 110.014053 95.837936 C 108.619179 97.266693 106.875793 97.548248 105.430893 97.548248 C 104.052971 97.548248 102.524986 97.299767 101.213203 95.971046 C 100.449211 95.190918 99.652145 93.912216 99.652145 92.101868 C 99.652145 90.15921 100.432259 88.64817 101.478615 87.651024 C 102.890434 86.306168 104.600746 85.973785 106.028694 85.973785 C 108.154488 85.973785 109.433197 86.721642 110.163307 87.418678"/>
        <path id="--2" fill="#ffffff" stroke="none" d="M 116.837669 86.223709 L 116.10675 92.2687 C 116.056747 92.617218 116.023651 92.766464 116.023651 93.231964 C 116.023651 93.67971 116.09063 94.244431 116.505295 94.659904 C 116.803787 94.942276 117.286217 95.157669 117.966316 95.157669 C 118.797272 95.157669 119.311974 94.892258 119.594337 94.609894 C 120.142136 94.062103 120.258293 93.131927 120.341393 92.501045 L 121.105385 86.223709 L 123.662788 86.223709 L 122.865707 92.666428 C 122.699524 93.995148 122.550285 95.340805 121.55394 96.353279 C 120.441429 97.499672 118.830345 97.548889 117.917099 97.548889 C 116.820732 97.548889 115.425865 97.41658 114.413391 96.403297 C 113.715553 95.722404 113.433189 94.875313 113.433189 93.845901 C 113.433189 93.348129 113.516273 92.550255 113.566299 92.102509 L 114.280266 86.223709 L 116.837669 86.223709 Z"/>
        <path id="path1" fill="#ffffff" stroke="none" d="M 128.641861 86.224014 L 127.546303 95.141846 L 131 95.141846 L 130.734573 97.299904 L 124.722672 97.299904 L 126.084465 86.224014 L 128.641861 86.224014 Z"/>
    </g>
</svg>
